<?xml version="1.0" standalone="no"?>
<!DOCTYPE svg PUBLIC "-//W3C//DTD SVG 20010904//EN"
 "http://www.w3.org/TR/2001/REC-SVG-20010904/DTD/svg10.dtd">
<svg version="1.0" xmlns="http://www.w3.org/2000/svg"
 width="700.000000pt" height="700.000000pt" viewBox="0 0 700.000000 700.000000"
 preserveAspectRatio="xMidYMid meet">
<metadata>
Created by potrace 1.14, written by Peter Selinger 2001-2017
</metadata>
<g transform="translate(0.000000,700.000000) scale(0.100000,-0.100000)"
fill="#000000" stroke="none">
<path d="M3365 6525 c-612 -99 -1096 -420 -1496 -990 -95 -135 -508 -842
-1179 -2014 -299 -523 -331 -587 -385 -747 -65 -193 -80 -300 -80 -559 1 -201
4 -243 23 -335 125 -576 501 -1041 1029 -1273 105 -46 256 -93 386 -120 101
-20 121 -21 1727 -24 1122 -3 1661 -1 1740 7 829 78 1455 614 1620 1386 28
130 38 411 20 562 -23 197 -88 420 -177 612 -77 165 -616 1107 -955 1669 -174
287 -361 490 -600 650 -414 277 -949 348 -1421 191 -308 -103 -589 -308 -808
-590 -169 -217 -650 -1025 -1178 -1978 -253 -456 -275 -502 -297 -612 -29
-145 -10 -276 61 -425 78 -163 223 -291 396 -350 77 -26 102 -29 294 -36 287
-11 2634 -11 2870 0 211 10 266 23 385 88 90 50 215 177 263 270 74 141 97
326 61 483 -27 120 -229 486 -862 1564 -245 417 -283 466 -409 528 -84 42
-191 63 -272 54 -97 -11 -211 -55 -253 -96 -63 -63 -54 -94 100 -352 214 -359
961 -1657 1016 -1765 32 -65 33 -98 4 -115 -19 -10 -306 -13 -1448 -13 -1555
0 -1493 -2 -1513 55 -18 52 -7 73 520 995 439 768 675 1161 782 1300 106 138
231 240 386 315 159 78 238 95 435 94 193 0 262 -15 417 -89 194 -92 349 -236
467 -435 531 -894 963 -1653 1018 -1785 118 -286 110 -616 -23 -894 -151 -319
-419 -531 -774 -614 -89 -21 -106 -21 -1680 -24 -1038 -3 -1626 0 -1693 6
-269 27 -482 125 -674 309 -340 327 -432 832 -229 1257 139 291 1201 2103
1442 2461 205 305 509 567 844 730 269 130 504 191 776 201 230 8 400 -15 564
-78 77 -29 111 -22 131 26 28 69 4 100 -174 219 -197 133 -399 221 -610 267
-129 28 -453 35 -587 14z"/>
<path d="M3456 3948 c-14 -13 -84 -126 -157 -253 -72 -126 -225 -390 -339
-585 -114 -195 -212 -371 -219 -391 -17 -53 -2 -85 46 -98 52 -15 1374 -15
1425 -1 45 13 62 40 54 84 -3 17 -43 94 -87 171 -45 77 -198 343 -341 590
-143 248 -271 462 -286 478 -31 33 -63 34 -96 5z"/>
</g>
</svg>
